<svg id="Ebene_1" data-name="Ebene 1" xmlns="http://www.w3.org/2000/svg" viewBox="0 0 24 24"><defs><style>.cls-1{fill:#76a8de;}</style></defs><path class="cls-1" d="M16.33,24.5h-8a8,8,0,0,1-8-8v-8a8,8,0,0,1,8-8h8a8,8,0,0,1,8,8v8A8,8,0,0,1,16.33,24.5Zm-8-22a6,6,0,0,0-6,6v8a6,6,0,0,0,6,6h8a6,6,0,0,0,6-6v-8a6,6,0,0,0-6-6Z" transform="translate(-0.33 -0.5)"/><path class="cls-1" d="M12.33,17.5a1,1,0,0,1-1-1v-8a1,1,0,0,1,2,0v8A1,1,0,0,1,12.33,17.5Z" transform="translate(-0.33 -0.5)"/><path class="cls-1" d="M16.33,13.58h-8a1,1,0,0,1,0-2h8a1,1,0,0,1,0,2Z" transform="translate(-0.33 -0.5)"/></svg>