<svg id="Ebene_1" data-name="Ebene 1" xmlns="http://www.w3.org/2000/svg" xmlns:xlink="http://www.w3.org/1999/xlink" viewBox="0 0 48 48"><defs><style>.cls-1{fill:#d9d9d9;}.cls-2{mask:url(#mask);}.cls-3{fill:#cdcdcd;}</style><mask id="mask" x="-3.65" y="-3.65" width="56.48" height="56.48" maskUnits="userSpaceOnUse"><g id="mask0_45_2208" data-name="mask0 45 2208"><rect class="cls-1" x="-3.65" y="-3.65" width="56.48" height="56.48"/></g></mask></defs><g class="cls-2"><path class="cls-3" d="M5.06,47.56a4.45,4.45,0,0,1-3.25-1.34A4.43,4.43,0,0,1,.47,43V10.83A4.42,4.42,0,0,1,1.81,7.58,4.42,4.42,0,0,1,5.06,6.23H25.55L21,10.83H5.06V43H37.2V27l4.59-4.59V43a4.58,4.58,0,0,1-4.59,4.59Zm25.66-40L34,10.77,18.83,25.92v3.27h3.22L37.26,14l3.27,3.22L25.32,32.41a4.74,4.74,0,0,1-1.46,1,4.24,4.24,0,0,1-1.75.38H16.54a2.25,2.25,0,0,1-2.3-2.3V25.92a4.56,4.56,0,0,1,.35-1.75,4.49,4.49,0,0,1,1-1.46Zm9.81,9.65L30.72,7.55l5.74-5.74A4.5,4.5,0,0,1,39.76.44,4.34,4.34,0,0,1,43,1.81l3.21,3.28A4.37,4.37,0,0,1,47.53,8.3a4.41,4.41,0,0,1-1.32,3.22Z"/></g></svg>