<svg id="Ebene_1" data-name="Ebene 1" xmlns="http://www.w3.org/2000/svg" viewBox="0 0 48 48"><defs><style>.cls-1{fill:#cdcdcd;}</style></defs><path class="cls-1" d="M45.39,4.74V43.26a4.33,4.33,0,0,1-1.26,3,4.28,4.28,0,0,1-3,1.25H32.56a4.27,4.27,0,0,1-4.28-4.27V4.74A4.27,4.27,0,0,1,32.56.47h8.56a4.27,4.27,0,0,1,4.27,4.27ZM32.56,43.26h8.56V4.74H32.56Zm0-38.52V43.26a4.28,4.28,0,0,1-4.28,4.27H19.72a4.28,4.28,0,0,1-4.28-4.27V4.74A4.28,4.28,0,0,1,19.72.47h8.56a4.28,4.28,0,0,1,4.28,4.27ZM19.72,43.26h8.56V4.74H19.72Zm0-38.52V43.26a4.27,4.27,0,0,1-4.28,4.27H6.88a4.28,4.28,0,0,1-3-1.25,4.33,4.33,0,0,1-1.26-3V4.74a4.33,4.33,0,0,1,1.26-3,4.28,4.28,0,0,1,3-1.25h8.56a4.27,4.27,0,0,1,4.28,4.27ZM6.88,43.26h8.56V4.74H6.88Z"/></svg>