<?xml version="1.0" encoding="utf-8"?>
<!-- Generator: Adobe Illustrator 25.0.0, SVG Export Plug-In . SVG Version: 6.00 Build 0)  -->
<svg version="1.1" id="Ebene_1" xmlns="http://www.w3.org/2000/svg" xmlns:xlink="http://www.w3.org/1999/xlink" x="0px" y="0px"
	 viewBox="0 0 16 11.6" style="enable-background:new 0 0 16 11.6;" xml:space="preserve">
<style type="text/css">
	.st0{fill:#FFFFFF;}
</style>
<path class="st0" d="M5.5,9.1l8.8-8.8C14.4,0.1,14.7,0,15,0c0.3,0,0.5,0.1,0.7,0.3C15.9,0.5,16.1,0.8,16,1c0,0.3-0.1,0.5-0.3,0.7
	l-9.5,9.5c-0.4,0.4-1,0.4-1.4,0c0,0,0,0,0,0L0.3,6.9C0.1,6.7,0,6.4,0,6.1c0-0.3,0.1-0.5,0.3-0.7c0.2-0.2,0.5-0.3,0.7-0.3
	c0.3,0,0.5,0.1,0.7,0.3L5.5,9.1z"/>
</svg>
