<?xml version="1.0" encoding="utf-8"?>
<!-- Generator: Adobe Illustrator 25.0.0, SVG Export Plug-In . SVG Version: 6.00 Build 0)  -->
<svg version="1.1" id="Ebene_1" xmlns="http://www.w3.org/2000/svg" xmlns:xlink="http://www.w3.org/1999/xlink" x="0px" y="0px"
	 viewBox="0 0 16 16" style="enable-background:new 0 0 16 16;" xml:space="preserve">
<style type="text/css">
	.st0{fill:#2A3647;}
</style>
<path class="st0" d="M6.8,11.3l7-8.8c0.2-0.3,0.4-0.4,0.7-0.4c0.3,0,0.6,0,0.8,0.2c0.2,0.2,0.4,0.4,0.4,0.7c0,0.4,0,0.6-0.2,0.8
	l-7.6,9.7c-0.4,0.5-1.1,0.6-1.6,0.2l0,0L0.7,9.5C0.5,9.3,0.3,9,0.3,8.7c0-0.3,0-0.6,0.2-0.8C0.7,7.6,1,7.5,1.3,7.4
	c0.3,0,0.6,0,0.8,0.2L6.8,11.3z"/>
</svg>
