<svg id="Ebene_1" data-name="Ebene 1" xmlns="http://www.w3.org/2000/svg" xmlns:xlink="http://www.w3.org/1999/xlink" viewBox="0 0 48 48"><defs><style>.cls-1{fill:#d9d9d9;}.cls-2{mask:url(#mask);}.cls-3{fill:#cdcdcd;}</style><mask id="mask" x="-4.24" y="-4.24" width="56.48" height="56.48" maskUnits="userSpaceOnUse"><g id="mask1_45_2208" data-name="mask1 45 2208"><rect class="cls-1" x="-4.24" y="-4.24" width="56.48" height="56.48"/></g></mask></defs><g class="cls-2"><path class="cls-3" d="M24,38.12a19.18,19.18,0,0,0-6.3,1,17.36,17.36,0,0,0-5.47,3.09v.59H35.77v-.59a17.36,17.36,0,0,0-5.47-3.09A19.18,19.18,0,0,0,24,38.12Zm-16.47,2a23.53,23.53,0,0,1,7.38-4.91A22.83,22.83,0,0,1,24,33.41a22.83,22.83,0,0,1,9.09,1.8,23.53,23.53,0,0,1,7.38,4.91V9.88H7.53ZM24,28.71a8.25,8.25,0,0,1-8.24-8.24A8.25,8.25,0,0,1,24,12.23a8.25,8.25,0,0,1,8.24,8.24A8.25,8.25,0,0,1,24,28.71ZM24,24a3.54,3.54,0,0,0,2.5-6,3.54,3.54,0,0,0-5,5A3.4,3.4,0,0,0,24,24ZM7.53,47.53A4.54,4.54,0,0,1,4.2,46.15a4.53,4.53,0,0,1-1.38-3.32V9.88A4.55,4.55,0,0,1,4.2,6.55,4.54,4.54,0,0,1,7.53,5.17H9.88V.47h4.71v4.7H33.41V.47h4.71v4.7h2.35A4.54,4.54,0,0,1,43.8,6.55a4.55,4.55,0,0,1,1.38,3.33V42.83a4.71,4.71,0,0,1-4.71,4.7Z"/></g></svg>