<?xml version="1.0" encoding="utf-8"?>
<!-- Generator: Adobe Illustrator 25.0.0, SVG Export Plug-In . SVG Version: 6.00 Build 0)  -->
<svg version="1.1" id="Ebene_1" xmlns="http://www.w3.org/2000/svg" xmlns:xlink="http://www.w3.org/1999/xlink" x="0px" y="0px"
	 viewBox="0 0 15.9 15.9" style="enable-background:new 0 0 15.9 15.9;" xml:space="preserve">
<style type="text/css">
	.st0{fill:#2A3647;}
</style>
<path class="st0" d="M14.7,15.8c-0.3,0-0.6-0.1-0.8-0.3L7.9,9.6L2,15.5c-0.5,0.5-1.2,0.5-1.7,0C0.1,15.3,0,15,0,14.7
	c0-0.3,0.1-0.6,0.3-0.8l5.9-5.9L0.3,2C0.1,1.8,0,1.5,0,1.2C0,0.5,0.5,0,1.2,0C1.5,0,1.8,0.1,2,0.3l5.9,5.9l5.9-5.9
	c0.5-0.5,1.2-0.5,1.7,0c0.2,0.2,0.3,0.5,0.3,0.8c0,0.3-0.1,0.6-0.3,0.8L9.6,7.9l5.9,5.9c0.5,0.5,0.5,1.2,0,1.7
	C15.3,15.7,15,15.9,14.7,15.8L14.7,15.8z"/>
</svg>
