<svg id="Ebene_1" data-name="Ebene 1" xmlns="http://www.w3.org/2000/svg" viewBox="0 0 15.86 15.86"><defs><style>.cls-1{fill:#76a8de;}</style></defs><path class="cls-1" d="M14.67,15.84a1.15,1.15,0,0,1-.82-.34L7.92,9.57,2,15.5a1.17,1.17,0,0,1-1.65,0A1.18,1.18,0,0,1,0,14.67a1.15,1.15,0,0,1,.34-.82L6.26,7.92.34,2A1.15,1.15,0,0,1,0,1.17,1.18,1.18,0,0,1,1.16,0,1.19,1.19,0,0,1,2,.34L7.92,6.27,13.85.34a1.17,1.17,0,0,1,1.65,0,1.18,1.18,0,0,1,.35.84,1.15,1.15,0,0,1-.34.82L9.57,7.92l5.93,5.93a1.17,1.17,0,0,1,0,1.65,1.18,1.18,0,0,1-.84.35Z" transform="translate(0.01 0.01)"/></svg>