<svg id="Ebene_1" data-name="Ebene 1" xmlns="http://www.w3.org/2000/svg" viewBox="0 0 100.03 121.97"><defs><style>.cls-1{fill:#fff;}.cls-2{fill:#29abe2;}</style></defs><path class="cls-1" d="M71.67,0H49.51V25.49H71.67Z"/><path class="cls-1" d="M49.51,46.22H71.67v36a43.79,43.79,0,0,1-7.07,24.38C60,113.59,51,122,34.35,122,16.24,122,5.69,113.41,0,108.71L14,91.47c5.55,4.54,10.9,8.27,20.45,8.27,7.23,0,10.11-2.94,11.8-5.51a21.45,21.45,0,0,0,3.4-12Z"/><path class="cls-2" d="M38.21,30.13H16.06V52.39H38.21Z"/><path class="cls-1" d="M83.28,111.52c0,4.74-2.4,7.3-5.76,7.3s-5.56-3-5.56-7.06,2.27-7.21,5.75-7.21S83.28,107.69,83.28,111.52Zm-8.74.19c0,2.86,1.14,5,3.1,5s3.07-2.23,3.07-5.14c0-2.55-1-5-3.07-5S74.54,108.9,74.54,111.71Z"/><path class="cls-1" d="M87.68,104.76v13.83H85.22V104.76Z"/><path class="cls-1" d="M90.34,118.59V104.76h2.72l2.93,5.7a44.67,44.67,0,0,1,2,4.59c-.16-1.71-.23-3.68-.23-5.87v-4.42H100v13.83H97.49l-3-5.82a45,45,0,0,1-2.1-4.71c0,1.72.12,3.65.12,6v4.49Z"/></svg>