<svg id="Ebene_1" data-name="Ebene 1" xmlns="http://www.w3.org/2000/svg" xmlns:xlink="http://www.w3.org/1999/xlink" viewBox="0 0 69 69"><defs><style>.cls-1{fill:#d9d9d9;}.cls-2{fill:#fff;}.cls-3{mask:url(#mask);}.cls-4{fill:#2a3647;}</style><mask id="mask" x="18.5" y="18.5" width="32" height="32" maskUnits="userSpaceOnUse"><g transform="translate(0 -0.5)"><g id="mask0_106507_5997" data-name="mask0 106507 5997"><rect class="cls-1" x="18.5" y="19" width="32" height="32"/></g></g></mask></defs><circle class="cls-2" cx="34.5" cy="34.5" r="34.5"/><g class="cls-3"><path class="cls-4" d="M25.17,44.33H27l11.5-11.5L36.67,31l-11.5,11.5ZM44.23,30.9l-5.66-5.6,1.86-1.87a2.72,2.72,0,0,1,3.77,0l1.87,1.87a2.68,2.68,0,0,1,.8,1.85A2.43,2.43,0,0,1,46.13,29Zm-1.93,2L28.17,47H22.5V41.33L36.63,27.2Z" transform="translate(0 -0.5)"/></g></svg>