<?xml version="1.0" encoding="utf-8"?>
<!-- Generator: Adobe Illustrator 25.0.0, SVG Export Plug-In . SVG Version: 6.00 Build 0)  -->
<svg version="1.1" id="Ebene_1" xmlns="http://www.w3.org/2000/svg" xmlns:xlink="http://www.w3.org/1999/xlink" x="0px" y="0px"
	 viewBox="0 0 20 15" style="enable-background:new 0 0 20 15;" xml:space="preserve">
<style type="text/css">
	.st0{fill:#FFFFFF;}
</style>
<g id="Prio_baja">
	<g id="Capa_2">
		<g id="Capa_1">
			<path id="Vector" class="st0" d="M10,9C9.8,9,9.5,8.9,9.3,8.8L0.4,2.2C0.3,2.1,0.2,2,0.2,1.9C0.1,1.8,0,1.6,0,1.5
				c0-0.3,0-0.6,0.2-0.8c0.2-0.2,0.4-0.4,0.7-0.4c0.3,0,0.6,0,0.8,0.2L10,6.5l8.3-6.1c0.1-0.1,0.2-0.1,0.4-0.2s0.3,0,0.4,0
				c0.1,0,0.3,0.1,0.4,0.1c0.1,0.1,0.2,0.2,0.3,0.3s0.1,0.2,0.2,0.4c0,0.1,0,0.3,0,0.4c0,0.1-0.1,0.3-0.1,0.4
				c-0.1,0.1-0.2,0.2-0.3,0.3l-8.9,6.6C10.5,8.9,10.2,9,10,9z"/>
			<path id="Vector_2" class="st0" d="M10,14.8c-0.2,0-0.5-0.1-0.7-0.2L0.4,8C0.2,7.8,0.1,7.5,0,7.3C0,7,0,6.7,0.2,6.4
				C0.4,6.2,0.6,6,0.9,6c0.3,0,0.6,0,0.8,0.2l8.3,6.1l8.3-6.1C18.5,6,18.8,6,19.1,6s0.5,0.2,0.7,0.4S20,7,20,7.3
				c0,0.3-0.2,0.5-0.4,0.7l-8.9,6.6C10.5,14.7,10.2,14.8,10,14.8z"/>
		</g>
	</g>
</g>
</svg>
