<?xml version="1.0" encoding="utf-8"?>
<!-- Generator: Adobe Illustrator 25.0.0, SVG Export Plug-In . SVG Version: 6.00 Build 0)  -->
<svg version="1.1" id="Ebene_1" xmlns="http://www.w3.org/2000/svg" xmlns:xlink="http://www.w3.org/1999/xlink" x="0px" y="0px"
	 viewBox="0 0 20 9" style="enable-background:new 0 0 20 9;" xml:space="preserve">
<style type="text/css">
	.st0{clip-path:url(#SVGID_2_);}
	.st1{fill:#FFFFFF;}
</style>
<g>
	<defs>
		<rect id="SVGID_1_" y="0.8" width="20" height="7.5"/>
	</defs>
	<clipPath id="SVGID_2_">
		<use xlink:href="#SVGID_1_"  style="overflow:visible;"/>
	</clipPath>
	<g id="Prio_media" class="st0">
		<g id="Capa_2">
			<g id="Capa_1">
				<path id="Vector" class="st1" d="M18.9,8.2H1.1c-0.3,0-0.6-0.1-0.8-0.3C0.1,7.7,0,7.4,0,7.1s0.1-0.6,0.3-0.8
					C0.5,6.1,0.8,6,1.1,6h17.8c0.3,0,0.6,0.1,0.8,0.3C19.9,6.5,20,6.8,20,7.1s-0.1,0.6-0.3,0.8C19.5,8.1,19.2,8.2,18.9,8.2z"/>
				<path id="Vector_2" class="st1" d="M18.9,3H1.1C0.8,3,0.5,2.9,0.3,2.7C0.1,2.5,0,2.2,0,1.9s0.1-0.6,0.3-0.8
					c0.2-0.2,0.5-0.3,0.8-0.3h17.8c0.3,0,0.6,0.1,0.8,0.3C19.9,1.3,20,1.6,20,1.9s-0.1,0.6-0.3,0.8C19.5,2.9,19.2,3,18.9,3z"/>
			</g>
		</g>
	</g>
</g>
</svg>
