<?xml version="1.0" encoding="utf-8"?>
<!-- Generator: Adobe Illustrator 25.0.0, SVG Export Plug-In . SVG Version: 6.00 Build 0)  -->
<svg version="1.1" id="Ebene_1" xmlns="http://www.w3.org/2000/svg" xmlns:xlink="http://www.w3.org/1999/xlink" x="0px" y="0px"
	 viewBox="0 0 21 15" style="enable-background:new 0 0 21 15;" xml:space="preserve">
<style type="text/css">
	.st0{clip-path:url(#SVGID_2_);}
	.st1{fill:#FFFFFF;}
</style>
<g>
	<defs>
		<rect id="SVGID_1_" x="0.5" y="0.2" width="20" height="14.5"/>
	</defs>
	<clipPath id="SVGID_2_">
		<use xlink:href="#SVGID_1_"  style="overflow:visible;"/>
	</clipPath>
	<g id="Prio_alta" class="st0">
		<g id="Capa_2">
			<g id="Capa_1">
				<path id="Vector" class="st1" d="M19.4,14.8c-0.2,0-0.5-0.1-0.7-0.2l-8.3-6.1l-8.3,6.1c-0.1,0.1-0.2,0.1-0.4,0.2
					c-0.1,0-0.3,0-0.4,0c-0.1,0-0.3-0.1-0.4-0.1c-0.1-0.1-0.2-0.2-0.3-0.3s-0.1-0.2-0.2-0.4c0-0.1,0-0.3,0-0.4
					c0-0.3,0.2-0.5,0.4-0.7l8.9-6.6C10,6.1,10.3,6,10.5,6c0.2,0,0.5,0.1,0.7,0.2l8.9,6.6c0.2,0.1,0.3,0.3,0.4,0.5
					c0.1,0.2,0.1,0.5,0,0.7c-0.1,0.2-0.2,0.4-0.4,0.5C19.9,14.7,19.6,14.8,19.4,14.8z"/>
				<path id="Vector_2" class="st1" d="M19.4,9c-0.2,0-0.5-0.1-0.7-0.2l-8.3-6.1L2.2,8.8C2,9,1.7,9,1.4,9C1.1,9,0.9,8.8,0.7,8.6
					C0.5,8.3,0.5,8,0.5,7.7c0-0.3,0.2-0.5,0.4-0.7l8.9-6.6c0.2-0.1,0.4-0.2,0.7-0.2c0.2,0,0.5,0.1,0.7,0.2L20.1,7
					c0.2,0.1,0.3,0.3,0.4,0.5c0.1,0.2,0.1,0.5,0,0.7c-0.1,0.2-0.2,0.4-0.4,0.5C19.9,8.9,19.6,9,19.4,9z"/>
			</g>
		</g>
	</g>
</g>
</svg>
